<?xml version="1.0" encoding="iso-8859-1"?>
<!-- Generator: Adobe Illustrator 19.0.0, SVG Export Plug-In . SVG Version: 6.00 Build 0)  -->
<svg version="1.1" id="Layer_1" xmlns="http://www.w3.org/2000/svg" xmlns:xlink="http://www.w3.org/1999/xlink" x="0px" y="0px"
	 viewBox="0 0 491.52 491.52" style="enable-background:new 0 0 491.52 491.52;" xml:space="preserve">
<path style="fill:#C64343;" d="M287.462,406.917H30.519C13.664,406.917,0,420.581,0,437.436v54.084h317.983v-54.084
	C317.983,420.581,304.319,406.917,287.462,406.917z"/>
<path style="fill:#FFE38A;" d="M484.757,388.045L244.215,147.503l-32.649,32.649l240.542,240.542
	c9.016,9.016,23.634,9.017,32.65,0.001C493.775,411.679,493.773,397.061,484.757,388.045z"/>
<rect x="132.791" y="37.492" transform="matrix(-0.7071 -0.7071 0.7071 -0.7071 245.5233 371.9089)" style="fill:#EDA165;" width="133.991" height="195.227"/>
<g>
	<path style="fill:#FBC176;" d="M196.151,243.204L91.68,138.734c-2.306-2.306-6.043-2.306-8.349-0.001l-18.811,18.811
		c-1.971,1.971-2.316,5.09-0.808,7.436c28.67,44.621,63.587,80.759,106.239,106.399c2.335,1.404,5.364,1.007,7.291-0.919
		l18.908-18.908C198.456,249.246,198.456,245.509,196.151,243.204z"/>
	<path style="fill:#FBC176;" d="M201.399,29.012l104.471,104.471c2.306,2.306,6.043,2.306,8.349,0.001l18.811-18.811
		c1.971-1.971,2.316-5.09,0.808-7.436C305.167,62.616,270.25,26.479,227.598,0.838c-2.335-1.404-5.364-1.007-7.291,0.919
		l-18.908,18.908C199.094,22.97,199.094,26.707,201.399,29.012z"/>
</g>
<g>
</g>
<g>
</g>
<g>
</g>
<g>
</g>
<g>
</g>
<g>
</g>
<g>
</g>
<g>
</g>
<g>
</g>
<g>
</g>
<g>
</g>
<g>
</g>
<g>
</g>
<g>
</g>
<g>
</g>
</svg>
